<svg width="18" height="25" viewBox="0 0 18 25" fill="none" xmlns="http://www.w3.org/2000/svg">
<path d="M13.5 10.46C13.5 10.232 13.448 10.007 13.348 9.80208C13.248 9.59718 13.1026 9.41777 12.9228 9.2775C12.7431 9.13723 12.5337 9.03978 12.3106 8.99256C12.0876 8.94534 11.8567 8.9496 11.6355 9.005L10.1355 9.38C9.81113 9.46126 9.52321 9.64857 9.31748 9.91219C9.11175 10.1758 9.00001 10.5006 9 10.835V17.294C8.52429 17.098 8.0145 16.9981 7.5 17C6.75 17 6.039 17.201 5.493 17.5655C4.953 17.9255 4.5 18.5075 4.5 19.25C4.5 19.9925 4.9515 20.5745 5.493 20.9345C6.039 21.299 6.7515 21.5 7.5 21.5C8.2485 21.5 8.961 21.299 9.507 20.9345C10.047 20.5745 10.5 19.9925 10.5 19.25V13.835L13.5 13.085V10.46Z" fill="#545F71"/>
<path d="M18 21.5V7.25L11.25 0.5H3C2.20435 0.5 1.44129 0.816071 0.87868 1.37868C0.31607 1.94129 0 2.70435 0 3.5V21.5C0 22.2956 0.31607 23.0587 0.87868 23.6213C1.44129 24.1839 2.20435 24.5 3 24.5H15C15.7956 24.5 16.5587 24.1839 17.1213 23.6213C17.6839 23.0587 18 22.2956 18 21.5ZM11.25 5C11.25 5.59674 11.4871 6.16903 11.909 6.59099C12.331 7.01295 12.9033 7.25 13.5 7.25H16.5V21.5C16.5 21.8978 16.342 22.2794 16.0607 22.5607C15.7794 22.842 15.3978 23 15 23H3C2.60218 23 2.22064 22.842 1.93934 22.5607C1.65804 22.2794 1.5 21.8978 1.5 21.5V3.5C1.5 3.10218 1.65804 2.72064 1.93934 2.43934C2.22064 2.15804 2.60218 2 3 2H11.25V5Z" fill="#545F71"/>
</svg>
