<svg width="272" height="272" viewBox="0 0 272 272" fill="none" xmlns="http://www.w3.org/2000/svg">
<rect width="272" height="272" rx="136" fill="white"/>
<path d="M114.837 185.121C114.837 183.687 115.406 182.312 116.42 181.298C117.434 180.284 118.809 179.714 120.243 179.714H152.682C154.116 179.714 155.491 180.284 156.505 181.298C157.519 182.312 158.088 183.687 158.088 185.121C158.088 186.555 157.519 187.93 156.505 188.944C155.491 189.958 154.116 190.527 152.682 190.527H120.243C118.809 190.527 117.434 189.958 116.42 188.944C115.406 187.93 114.837 186.555 114.837 185.121ZM82.398 137.133C82.398 123.055 95.752 112.296 109.755 113.604C127.521 115.261 145.404 115.261 163.171 113.604C177.173 112.296 190.527 123.055 190.527 137.133V149.644C190.578 152.038 189.773 154.371 188.256 156.225C186.74 158.078 184.612 159.329 182.255 159.754C173.118 161.343 156.953 163.495 136.463 163.495C115.972 163.495 99.8068 161.332 90.6699 159.754C88.3132 159.329 86.1852 158.078 84.6688 156.225C83.1525 154.371 82.3472 152.038 82.398 149.644V137.133ZM131.51 128.191C131.089 128.119 130.657 128.148 130.249 128.276C129.841 128.404 129.469 128.627 129.164 128.926L119.216 138.658C112.45 138.252 105.702 137.592 98.985 136.679C98.2891 136.61 97.5934 136.813 97.0441 137.246C96.4949 137.679 96.1349 138.308 96.0397 139.001C95.9445 139.694 96.1216 140.397 96.5337 140.962C96.9458 141.527 97.5609 141.91 98.2498 142.031C104.197 142.853 111.571 143.642 120.092 144.118C120.467 144.139 120.843 144.082 121.195 143.95C121.547 143.818 121.867 143.613 122.136 143.35L130.288 135.392L139.447 153.882C139.64 154.27 139.923 154.606 140.273 154.861C140.623 155.117 141.029 155.285 141.457 155.35C141.886 155.416 142.323 155.378 142.734 155.239C143.144 155.1 143.515 154.865 143.815 154.553L153.893 144.064C160.844 143.654 167.777 142.976 174.676 142.031C175.364 141.91 175.979 141.527 176.392 140.962C176.804 140.397 176.981 139.694 176.886 139.001C176.79 138.308 176.43 137.679 175.881 137.246C175.332 136.813 174.636 136.61 173.94 136.679C168.123 137.479 160.889 138.247 152.531 138.722C151.85 138.76 151.209 139.054 150.736 139.544L142.583 148.032L133.478 129.65C133.288 129.269 133.011 128.938 132.669 128.685C132.327 128.431 131.93 128.262 131.51 128.191Z" fill="#AA33FF"/>
<path d="M141.869 70.1364C143.93 68.9462 145.542 67.1091 146.452 64.91C147.363 62.7109 147.523 60.2727 146.907 57.9735C146.291 55.6743 144.934 53.6427 143.045 52.1936C141.157 50.7446 138.843 49.9592 136.463 49.9592C134.082 49.9592 131.769 50.7446 129.88 52.1936C127.992 53.6427 126.634 55.6743 126.018 57.9735C125.402 60.2727 125.562 62.7109 126.473 64.91C127.384 67.1091 128.995 68.9462 131.056 70.1364V82.3982H109.43C96.5254 82.3982 84.149 87.5247 75.0238 96.6499C65.8986 105.775 60.7722 118.151 60.7722 131.056V136.463C57.9044 136.463 55.1541 137.602 53.1263 139.63C51.0984 141.658 49.9592 144.408 49.9592 147.276V168.902C49.9592 171.769 51.0984 174.52 53.1263 176.548C55.1541 178.575 57.9044 179.715 60.7722 179.715V190.527C60.7722 196.263 63.0506 201.764 67.1062 205.819C71.1619 209.875 76.6625 212.153 82.398 212.153H190.527C196.263 212.153 201.763 209.875 205.819 205.819C209.875 201.764 212.153 196.263 212.153 190.527V179.715C215.021 179.715 217.771 178.575 219.799 176.548C221.827 174.52 222.966 171.769 222.966 168.902V147.276C222.966 144.408 221.827 141.658 219.799 139.63C217.771 137.602 215.021 136.463 212.153 136.463V131.056C212.153 118.151 207.027 105.775 197.901 96.6499C188.776 87.5247 176.4 82.3982 163.495 82.3982H141.869V70.1364ZM201.34 131.056V190.527C201.34 193.395 200.201 196.146 198.173 198.173C196.145 200.201 193.395 201.34 190.527 201.34H82.398C79.5302 201.34 76.7799 200.201 74.7521 198.173C72.7243 196.146 71.5851 193.395 71.5851 190.527V131.056C71.5851 121.019 75.5723 111.393 82.6697 104.296C89.7671 97.1984 99.3931 93.2112 109.43 93.2112H163.495C173.532 93.2112 183.158 97.1984 190.256 104.296C197.353 111.393 201.34 121.019 201.34 131.056Z" fill="#AA33FF"/>
</svg>
