<svg width="18" height="25" viewBox="0 0 18 25" fill="none" xmlns="http://www.w3.org/2000/svg">
<path d="M6.75305 11C7.04853 11 7.34111 10.9418 7.61409 10.8287C7.88707 10.7157 8.13511 10.5499 8.34404 10.341C8.55297 10.1321 8.71871 9.88402 8.83178 9.61104C8.94485 9.33806 9.00305 9.04547 9.00305 8.75C9.00305 8.45453 8.94485 8.16194 8.83178 7.88896C8.71871 7.61598 8.55297 7.36794 8.34404 7.15901C8.13511 6.95008 7.88707 6.78434 7.61409 6.67127C7.34111 6.5582 7.04853 6.5 6.75305 6.5C6.15631 6.5 5.58402 6.73705 5.16206 7.15901C4.74011 7.58097 4.50305 8.15326 4.50305 8.75C4.50305 9.34674 4.74011 9.91903 5.16206 10.341C5.58402 10.7629 6.15631 11 6.75305 11Z" fill="#545F71"/>
<path d="M18 21.5C18 22.2956 17.6839 23.0587 17.1213 23.6213C16.5587 24.1839 15.7956 24.5 15 24.5H3C2.20435 24.5 1.44129 24.1839 0.87868 23.6213C0.31607 23.0587 0 22.2956 0 21.5V3.5C0 2.70435 0.31607 1.94129 0.87868 1.37868C1.44129 0.816071 2.20435 0.5 3 0.5L11.25 0.5L18 7.25V21.5ZM3 2C2.60218 2 2.22064 2.15804 1.93934 2.43934C1.65804 2.72064 1.5 3.10218 1.5 3.5V18.5L4.836 15.164C4.95422 15.0461 5.10843 14.9709 5.27417 14.9506C5.43992 14.9302 5.60773 14.9657 5.751 15.0515L9 17L12.2355 12.47C12.2988 12.3815 12.3806 12.3078 12.4753 12.254C12.5699 12.2003 12.6751 12.1678 12.7836 12.1588C12.8921 12.1498 13.0012 12.1645 13.1034 12.202C13.2056 12.2394 13.2985 12.2986 13.3755 12.3755L16.5 15.5V7.25H13.5C12.9033 7.25 12.331 7.01295 11.909 6.59099C11.4871 6.16903 11.25 5.59674 11.25 5V2H3Z" fill="#545F71"/>
</svg>
