<svg width="26" height="26" viewBox="0 0 26 26" fill="none" xmlns="http://www.w3.org/2000/svg">
<path d="M9.74997 20.3125C9.74997 20.097 9.83558 19.8904 9.98795 19.738C10.1403 19.5856 10.347 19.5 10.5625 19.5H15.4375C15.653 19.5 15.8596 19.5856 16.012 19.738C16.1644 19.8904 16.25 20.097 16.25 20.3125C16.25 20.528 16.1644 20.7347 16.012 20.887C15.8596 21.0394 15.653 21.125 15.4375 21.125H10.5625C10.347 21.125 10.1403 21.0394 9.98795 20.887C9.83558 20.7347 9.74997 20.528 9.74997 20.3125ZM4.87497 13.1008C4.87497 10.985 6.88185 9.36813 8.98622 9.56476C11.6563 9.81377 14.3437 9.81377 17.0137 9.56476C19.1181 9.36813 21.125 10.985 21.125 13.1008V14.9809C21.1326 15.3407 21.0116 15.6914 20.7837 15.9699C20.5558 16.2484 20.236 16.4365 19.8818 16.5003C18.5087 16.7391 16.0793 17.0625 13 17.0625C9.9206 17.0625 7.49122 16.7375 6.1181 16.5003C5.76392 16.4365 5.44413 16.2484 5.21624 15.9699C4.98836 15.6914 4.86734 15.3407 4.87497 14.9809V13.1008ZM12.2557 11.7569C12.1924 11.7461 12.1274 11.7505 12.0661 11.7697C12.0048 11.7889 11.949 11.8224 11.9031 11.8674L10.4081 13.3299C9.39127 13.2689 8.3771 13.1697 7.36772 13.0325C7.26313 13.0221 7.15858 13.0527 7.07604 13.1177C6.9935 13.1828 6.93939 13.2773 6.92508 13.3815C6.91078 13.4856 6.93739 13.5912 6.99933 13.6762C7.06126 13.7611 7.1537 13.8187 7.25722 13.8369C8.15097 13.9604 9.25922 14.079 10.5397 14.1505C10.5961 14.1537 10.6526 14.1451 10.7055 14.1252C10.7583 14.1053 10.8065 14.0747 10.8468 14.0351L12.0721 12.8391L13.4485 15.6179C13.4775 15.6762 13.52 15.7267 13.5726 15.765C13.6252 15.8034 13.6862 15.8286 13.7506 15.8385C13.8149 15.8484 13.8807 15.8427 13.9424 15.8218C14.0041 15.8009 14.0598 15.7656 14.105 15.7186L15.6195 14.1424C16.6641 14.0808 17.706 13.9789 18.7427 13.8369C18.8462 13.8187 18.9387 13.7611 19.0006 13.6762C19.0626 13.5912 19.0892 13.4856 19.0749 13.3815C19.0606 13.2773 19.0065 13.1828 18.9239 13.1177C18.8414 13.0527 18.7368 13.0221 18.6322 13.0325C17.758 13.1528 16.6708 13.2681 15.4147 13.3396C15.3125 13.3453 15.2161 13.3894 15.145 13.4631L13.9197 14.7388L12.5515 11.9763C12.5229 11.919 12.4813 11.8693 12.4299 11.8311C12.3785 11.793 12.3188 11.7676 12.2557 11.7569Z" fill="#AA33FF"/>
<path d="M13.8125 3.03229C14.1223 2.85343 14.3644 2.57735 14.5013 2.24686C14.6382 1.91637 14.6622 1.54995 14.5696 1.20442C14.477 0.85889 14.273 0.553566 13.9892 0.335801C13.7054 0.118036 13.3577 0 13 0C12.6423 0 12.2946 0.118036 12.0108 0.335801C11.727 0.553566 11.523 0.85889 11.4304 1.20442C11.3378 1.54995 11.3618 1.91637 11.4987 2.24686C11.6356 2.57735 11.8777 2.85343 12.1875 3.03229V4.87504H8.9375C6.9981 4.87504 5.13814 5.64546 3.76678 7.01682C2.39542 8.38818 1.625 10.2481 1.625 12.1875V13C1.19402 13 0.780698 13.1712 0.475951 13.476C0.171205 13.7807 0 14.1941 0 14.625L0 17.875C0 18.306 0.171205 18.7193 0.475951 19.0241C0.780698 19.3288 1.19402 19.5 1.625 19.5V21.125C1.625 21.987 1.96741 22.8136 2.5769 23.4231C3.1864 24.0326 4.01305 24.375 4.875 24.375H21.125C21.987 24.375 22.8136 24.0326 23.4231 23.4231C24.0326 22.8136 24.375 21.987 24.375 21.125V19.5C24.806 19.5 25.2193 19.3288 25.524 19.0241C25.8288 18.7193 26 18.306 26 17.875V14.625C26 14.1941 25.8288 13.7807 25.524 13.476C25.2193 13.1712 24.806 13 24.375 13V12.1875C24.375 10.2481 23.6046 8.38818 22.2332 7.01682C20.8619 5.64546 19.0019 4.87504 17.0625 4.87504H13.8125V3.03229ZM22.75 12.1875V21.125C22.75 21.556 22.5788 21.9693 22.274 22.2741C21.9693 22.5788 21.556 22.75 21.125 22.75H4.875C4.44402 22.75 4.0307 22.5788 3.72595 22.2741C3.4212 21.9693 3.25 21.556 3.25 21.125V12.1875C3.25 10.6791 3.84922 9.23248 4.91583 8.16587C5.98244 7.09926 7.42908 6.50004 8.9375 6.50004H17.0625C18.5709 6.50004 20.0176 7.09926 21.0842 8.16587C22.1508 9.23248 22.75 10.6791 22.75 12.1875Z" fill="#AA33FF"/>
</svg>
