<svg width="18" height="25" viewBox="0 0 18 25" fill="none" xmlns="http://www.w3.org/2000/svg">
<path d="M5.25 11C5.05109 11 4.86032 11.079 4.71967 11.2197C4.57902 11.3603 4.5 11.5511 4.5 11.75C4.5 11.9489 4.57902 12.1397 4.71967 12.2803C4.86032 12.421 5.05109 12.5 5.25 12.5H12.75C12.9489 12.5 13.1397 12.421 13.2803 12.2803C13.421 12.1397 13.5 11.9489 13.5 11.75C13.5 11.5511 13.421 11.3603 13.2803 11.2197C13.1397 11.079 12.9489 11 12.75 11H5.25ZM4.5 14.75C4.5 14.5511 4.57902 14.3603 4.71967 14.2197C4.86032 14.079 5.05109 14 5.25 14H12.75C12.9489 14 13.1397 14.079 13.2803 14.2197C13.421 14.3603 13.5 14.5511 13.5 14.75C13.5 14.9489 13.421 15.1397 13.2803 15.2803C13.1397 15.421 12.9489 15.5 12.75 15.5H5.25C5.05109 15.5 4.86032 15.421 4.71967 15.2803C4.57902 15.1397 4.5 14.9489 4.5 14.75ZM4.5 17.75C4.5 17.5511 4.57902 17.3603 4.71967 17.2197C4.86032 17.079 5.05109 17 5.25 17H8.25C8.44891 17 8.63968 17.079 8.78033 17.2197C8.92098 17.3603 9 17.5511 9 17.75C9 17.9489 8.92098 18.1397 8.78033 18.2803C8.63968 18.421 8.44891 18.5 8.25 18.5H5.25C5.05109 18.5 4.86032 18.421 4.71967 18.2803C4.57902 18.1397 4.5 17.9489 4.5 17.75Z" fill="#545F71"/>
<path d="M11.25 0.5H3C2.20435 0.5 1.44129 0.816071 0.87868 1.37868C0.31607 1.94129 0 2.70435 0 3.5V21.5C0 22.2956 0.31607 23.0587 0.87868 23.6213C1.44129 24.1839 2.20435 24.5 3 24.5H15C15.7956 24.5 16.5587 24.1839 17.1213 23.6213C17.6839 23.0587 18 22.2956 18 21.5V7.25L11.25 0.5ZM11.25 2V5C11.25 5.59674 11.4871 6.16903 11.909 6.59099C12.331 7.01295 12.9033 7.25 13.5 7.25H16.5V21.5C16.5 21.8978 16.342 22.2794 16.0607 22.5607C15.7794 22.842 15.3978 23 15 23H3C2.60218 23 2.22064 22.842 1.93934 22.5607C1.65804 22.2794 1.5 21.8978 1.5 21.5V3.5C1.5 3.10218 1.65804 2.72064 1.93934 2.43934C2.22064 2.15804 2.60218 2 3 2H11.25Z" fill="#545F71"/>
</svg>
