<svg width="38" height="24" viewBox="0 0 38 24" fill="none" xmlns="http://www.w3.org/2000/svg">
<path d="M11.875 0C8.72555 0 5.7051 1.26428 3.47811 3.51472C1.25111 5.76516 0 8.8174 0 12C0 15.1826 1.25111 18.2348 3.47811 20.4853C5.7051 22.7357 8.72555 24 11.875 24H26.125C29.2744 24 32.2949 22.7357 34.5219 20.4853C36.7489 18.2348 38 15.1826 38 12C38 8.8174 36.7489 5.76516 34.5219 3.51472C32.2949 1.26428 29.2744 0 26.125 0H11.875ZM26.125 21.6C23.6054 21.6 21.1891 20.5886 19.4075 18.7882C17.6259 16.9879 16.625 14.5461 16.625 12C16.625 9.45392 17.6259 7.01212 19.4075 5.21177C21.1891 3.41143 23.6054 2.4 26.125 2.4C28.6446 2.4 31.0609 3.41143 32.8425 5.21177C34.6241 7.01212 35.625 9.45392 35.625 12C35.625 14.5461 34.6241 16.9879 32.8425 18.7882C31.0609 20.5886 28.6446 21.6 26.125 21.6Z" fill="#AA33FF"/>
</svg>
